<svg width="96" height="239" viewBox="0 0 96 239" fill="none" xmlns="http://www.w3.org/2000/svg">
<path d="M60.1506 24.556H64.299V33.6453H60.1506V24.556Z" fill="#1B1918"/>
<path d="M31.2109 24.556H35.3593V33.6453H31.2109V24.556Z" fill="#1B1918"/>
<path d="M31.112 29.192H64.299V138.715H31.112V29.192Z" fill="#1B1918"/>
<path d="M73.4355 185.061H53.0391V189.605H73.4355V185.061Z" fill="#222120"/>
<path d="M53.0391 173.173L73.4355 182.428V186.972L53.0391 177.717V173.173Z" fill="#222120"/>
<path d="M42.1746 185.061H22.0627V189.604H42.1746V185.061Z" fill="#222120"/>
<path d="M42.1746 173.173L22.0627 182.428V186.972L42.1746 177.717V173.173Z" fill="#222120"/>
<path d="M53.0391 41.0787H70.8183V45.6227H53.0391V41.0787Z" fill="#222120"/>
<path d="M53.0391 29.192L70.8183 38.4466V42.9893L53.0391 33.7346V29.192Z" fill="#222120"/>
<path d="M42.1746 41.0787H24.396V45.6227H42.1746V41.0787Z" fill="#222120"/>
<path d="M42.1746 29.192L24.396 38.4466V42.9893L42.1746 33.7346V29.192Z" fill="#222120"/>
<path d="M14.5187 206.692L47.7052 214.889L62.5776 211.216L80.8927 206.692V230.356L47.7052 238.397L14.5187 230.356V206.692Z" fill="#9E1B21"/>
<path d="M18.572 62.748H76.8391C79.0776 62.748 80.8927 64.5626 80.8927 66.8013V142.512C80.8927 144.751 79.0776 146.565 76.8391 146.565H18.572C16.3334 146.565 14.5187 144.751 14.5187 142.512V66.8013C14.5187 64.5626 16.3334 62.748 18.572 62.748Z" fill="#1B1918"/>
<path d="M34.6678 144.629H60.7432L54.1104 226.464C53.8402 229.801 51.0531 232.371 47.7052 232.371C44.3579 232.371 41.5708 229.801 41.3006 226.464L34.6678 144.629Z" fill="#D52125"/>
<path d="M19.8027 140.043L34.6678 144.629H60.7432L75.6088 140.043C78.7334 139.079 80.8927 135.948 80.8927 132.381V121.736C80.8927 114.728 79.1932 107.847 75.9688 101.8C65.8922 82.9053 58.8214 62.2599 55.0604 40.7519L53.0391 29.192H47.7052H42.3719L40.3506 40.7519C36.5896 62.2599 29.5188 82.9053 19.4427 101.8C16.2187 107.847 14.5187 114.728 14.5187 121.736V132.381C14.5187 135.948 16.6774 139.079 19.8027 140.043Z" fill="#D52125"/>
<path d="M74.1927 21.2973H89.3703C92.7068 21.2973 95.412 24.0013 95.412 27.3386V54.996C95.412 58.332 92.7068 61.0373 89.3703 61.0373H74.1927C70.8563 61.0373 68.1511 58.332 68.1511 54.996V27.3386C68.1511 24.0013 70.8563 21.2973 74.1927 21.2973Z" fill="#1B1918"/>
<path d="M78.7303 165.365H89.9693C92.9749 165.365 95.412 167.803 95.412 170.808V199.664C95.412 202.669 92.9749 205.107 89.9693 205.107H78.7303C75.724 205.107 73.2869 202.669 73.2869 199.664V170.808C73.2869 167.803 75.724 165.365 78.7303 165.365Z" fill="#1B1918"/>
<path d="M5.44136 165.365H16.6813C19.6867 165.365 22.124 167.803 22.124 170.808V199.664C22.124 202.669 19.6867 205.107 16.6813 205.107H5.44136C2.43603 205.107 -0.00131704 202.669 -0.00131704 199.664V170.808C-0.00131704 167.803 2.43603 165.365 5.44136 165.365Z" fill="#1B1918"/>
<path d="M6.04137 21.2973H21.2187C24.5547 21.2973 27.2599 24.0013 27.2599 27.3386V54.996C27.2599 58.332 24.5547 61.0373 21.2187 61.0373H6.04137C2.70403 61.0373 -0.0013086 58.332 -0.0013086 54.996V27.3386C-0.0013086 24.0013 2.70403 21.2973 6.04137 21.2973Z" fill="#1B1918"/>
<path d="M15.9014 0.0199585H79.3126V24.556H15.9014V0.0199585Z" fill="#9E1B21"/>
<path d="M15.9014 12.2307H79.3126V24.556H15.9014V12.2307Z" fill="#D52125"/>
<path d="M85.2385 229.285L80.8927 230.396V206.692L85.2385 205.58V229.285Z" fill="#D52125"/>
<path d="M10.172 229.285L14.5187 230.396V206.692L10.172 205.58V229.285Z" fill="#D52125"/>
<path d="M58.3729 117.743L47.6068 52.9053L37.038 117.743V128.411H58.3729V117.743Z" fill="#EF2F3D"/>
<path d="M73.7812 0.0199585H79.3126V24.556H73.7812V0.0199585Z" fill="#D52125"/>
<path d="M15.9013 0.0199585H21.432V24.556H15.9013V0.0199585Z" fill="#D52125"/>
<path d="M45.9276 29.192H49.4833V117.743H45.9276V29.192Z" fill="white"/>
<path d="M42.7916 221.137H52.6193V223.952H42.7916V221.137Z" fill="white"/>
<path d="M52.6193 184.517H42.7917V187.332H52.6193V184.517Z" fill="white"/>
<path d="M52.6193 191.495H42.7917V197.022H52.6193V191.495Z" fill="white"/>
<path d="M50.4694 155.824H44.9418V174.951H50.4694V155.824Z" fill="white"/>
<path d="M65.6782 100.427V110.255H60.1506V100.427H65.6782Z" fill="white"/>
<path d="M34.6677 100.427V110.255H29.1407V100.427H34.6677Z" fill="white"/>
<path d="M45.2664 214.912V205.382L45.7216 205.866H42.9196V204.955H46.2905V214.912H45.2664Z" fill="white"/>
<path d="M47.7057 144.629H58.3729V128.411C58.3729 122.519 53.5969 117.743 47.7057 117.743C41.814 117.743 37.038 122.519 37.038 128.411V144.629H47.7057Z" fill="#1B1918"/>
<path d="M25.7787 3.12396H70.8183V10.236H25.7787V3.12396Z" fill="white"/>
<path d="M41.3844 110.255H53.8292V115.525H41.3844V110.255Z" fill="#1B1918"/>
<path d="M47.7052 150.096C50.126 150.096 52.088 152.059 52.088 154.479V184.517H43.3229V154.479C43.3229 152.059 45.285 150.096 47.7052 150.096ZM50.4694 174.952V155.824H44.9416V174.952H50.4694ZM43.3229 187.332H52.088V191.495H43.3229V187.332ZM43.3229 197.023H52.088V213.605C52.088 216.027 50.126 217.988 47.7052 217.988C45.285 217.988 43.3229 216.027 43.3229 213.605V197.023ZM48.125 215.135V205.164H44.299V215.135H48.125Z" fill="#DC2B3A"/>
<path d="M52.088 184.517H43.3229V187.332H52.088V184.517Z" fill="white"/>
<path d="M52.088 191.495H43.3229V197.022H52.088V191.495Z" fill="white"/>
<path d="M50.4694 155.824H44.9418V174.951H50.4694V155.824Z" fill="white"/>
<mask id="mask0_1_396" style="mask-type:luminance" maskUnits="userSpaceOnUse" x="44" y="205" width="5" height="11">
<path d="M48.1249 205.164H44.2989V215.134H48.1249V205.164Z" fill="white"/>
</mask>
<g mask="url(#mask0_1_396)">
<path d="M48.1249 205.164H44.2989V215.134H48.1249V205.164Z" fill="#DC2B3A"/>
<path d="M45.2664 214.912V205.382L45.7215 205.866H42.9196V204.955H46.2905V214.912H45.2664Z" fill="white"/>
</g>
<path d="M73.1886 110.255C75.3703 110.255 77.1391 112.024 77.1391 114.205V132.12C77.1391 134.301 75.3703 136.071 73.1886 136.071C71.0063 136.071 69.2375 134.301 69.2375 132.12V114.205C69.2375 112.024 71.0063 110.255 73.1886 110.255Z" fill="#DC2B3A"/>
<path d="M22.124 110.255C24.3054 110.255 26.0747 112.024 26.0747 114.205V132.12C26.0747 134.301 24.3054 136.071 22.124 136.071C19.9414 136.071 18.1734 134.301 18.1734 132.12V114.205C18.1734 112.024 19.9414 110.255 22.124 110.255Z" fill="#DC2B3A"/>
</svg>
