<svg width="96" height="239" viewBox="0 0 96 239" fill="none" xmlns="http://www.w3.org/2000/svg">
<path d="M60.4067 24.556H64.5547V33.6453H60.4067V24.556Z" fill="#1B1918"/>
<path d="M31.4667 24.556H35.6147V33.6453H31.4667V24.556Z" fill="#1B1918"/>
<path d="M31.368 29.192H64.5547V138.715H31.368V29.192Z" fill="#1B1918"/>
<path d="M53.2947 185.061H73.6907V189.604H53.2947V185.061Z" fill="#222120"/>
<path d="M53.2947 173.173L73.6907 182.428V186.972L53.2947 177.717V173.173Z" fill="#222120"/>
<path d="M42.4294 185.061H22.3173V189.605H42.4294V185.061Z" fill="#222120"/>
<path d="M42.4294 173.173L22.3173 182.428V186.972L42.4294 177.717V173.173Z" fill="#222120"/>
<path d="M53.2947 41.0787H71.0734V45.6227H53.2947V41.0787Z" fill="#222120"/>
<path d="M53.2947 29.192L71.0734 38.4466V42.9893L53.2947 33.7346V29.192Z" fill="#222120"/>
<path d="M42.4294 41.0787H24.6507V45.6227H42.4294V41.0787Z" fill="#222120"/>
<path d="M42.4294 29.192L24.6507 38.4466V42.9893L42.4294 33.7346V29.192Z" fill="#222120"/>
<path d="M14.7747 206.692L47.9614 214.889L62.8334 211.216L81.1481 206.692V230.356L47.9614 238.397L14.7747 230.356V206.692Z" fill="#1B1918"/>
<path d="M18.8281 62.748H77.0947C79.3334 62.748 81.1481 64.5626 81.1481 66.8013V142.512C81.1481 144.751 79.3334 146.565 77.0947 146.565H18.8281C16.5894 146.565 14.7747 144.751 14.7747 142.512V66.8013C14.7747 64.5626 16.5894 62.748 18.8281 62.748Z" fill="#1B1918"/>
<path d="M34.9227 144.629H60.9987L54.3667 226.464C54.096 229.801 51.3093 232.371 47.9613 232.371C44.6133 232.371 41.8267 229.801 41.556 226.464L34.9227 144.629Z" fill="#FDD405"/>
<path d="M20.0574 140.043L34.9227 144.629H60.9987L75.8641 140.043C78.9894 139.079 81.1481 135.948 81.1481 132.381V121.736C81.1481 114.728 79.448 107.847 76.224 101.8C66.148 82.9053 59.0774 62.2599 55.3161 40.7519L53.2947 29.192H47.9614H42.6281L40.6067 40.7519C36.8454 62.2599 29.7747 82.9053 19.6974 101.8C16.4734 107.847 14.7747 114.728 14.7747 121.736V132.381C14.7747 135.948 16.9334 139.079 20.0574 140.043Z" fill="#222120"/>
<path d="M74.448 21.2973H89.6254C92.9627 21.2973 95.668 24.0013 95.668 27.3386V54.996C95.668 58.332 92.9627 61.0373 89.6254 61.0373H74.448C71.112 61.0373 68.4067 58.332 68.4067 54.996V27.3386C68.4067 24.0013 71.112 21.2973 74.448 21.2973Z" fill="#1B1918"/>
<path d="M78.9853 165.365H90.224C93.2307 165.365 95.668 167.803 95.668 170.808V199.664C95.668 202.669 93.2307 205.107 90.224 205.107H78.9853C75.98 205.107 73.5427 202.669 73.5427 199.664V170.808C73.5427 167.803 75.98 165.365 78.9853 165.365Z" fill="#1B1918"/>
<path d="M5.69733 165.365H16.936C19.9427 165.365 22.38 167.803 22.38 170.808V199.664C22.38 202.669 19.9427 205.107 16.936 205.107H5.69733C2.69199 205.107 0.254684 202.669 0.254684 199.664V170.808C0.254684 167.803 2.69199 165.365 5.69733 165.365Z" fill="#1B1918"/>
<path d="M6.29607 21.2973H21.4733C24.8107 21.2973 27.5161 24.0013 27.5161 27.3386V54.996C27.5161 58.332 24.8107 61.0373 21.4733 61.0373H6.29607C2.96007 61.0373 0.25473 58.332 0.25473 54.996V27.3386C0.25473 24.0013 2.96007 21.2973 6.29607 21.2973Z" fill="#1B1918"/>
<path d="M16.1573 0.0199585H79.568V24.556H16.1573V0.0199585Z" fill="#FDD405"/>
<path d="M16.1573 12.2307H79.568V24.556H16.1573V12.2307Z" fill="#FDD405"/>
<path d="M85.4947 229.285L81.148 230.396V206.692L85.4947 205.58V229.285Z" fill="#222120"/>
<path d="M10.428 229.285L14.7747 230.396V206.692L10.428 205.58V229.285Z" fill="#222120"/>
<path d="M58.6281 117.743L47.8628 52.9053L37.2934 117.743V128.411H58.6281V117.743Z" fill="#3A3A3B"/>
<path d="M74.036 0.0199585H79.568V24.556H74.036V0.0199585Z" fill="#222120"/>
<path d="M16.1574 0.0199585H21.6881V24.556H16.1574V0.0199585Z" fill="#222120"/>
<path d="M46.1827 29.192H49.7387V117.743H46.1827V29.192Z" fill="#FDD405"/>
<path d="M43.0467 221.137H52.8747V223.952H43.0467V221.137Z" fill="#1B1918"/>
<path d="M52.8747 184.517H43.0471V187.332H52.8747V184.517Z" fill="#1B1918"/>
<path d="M52.8747 191.495H43.0471V197.022H52.8747V191.495Z" fill="#1B1918"/>
<path d="M50.7253 155.824H45.1972V174.951H50.7253V155.824Z" fill="white"/>
<path d="M65.9347 79.2186C63.8627 73.8186 62.0214 68.3173 60.4067 62.732V144.629H60.9987L65.9347 143.107V79.2186Z" fill="#FDD405"/>
<path d="M34.9241 144.629V64.7653C33.2987 70.1773 31.4521 75.5053 29.3961 80.7373V142.924L34.9241 144.629Z" fill="#FDD405"/>
<path d="M47.9613 150.096C50.3813 150.096 52.344 152.059 52.344 154.479V184.517H43.5786V154.479C43.5786 152.059 45.54 150.096 47.9613 150.096ZM50.7253 174.952V155.824H45.1973V174.952H50.7253ZM43.5786 187.332H52.344V191.495H43.5786V187.332ZM43.5786 197.023H52.344V213.605C52.344 216.027 50.3813 217.988 47.9613 217.988C45.54 217.988 43.5786 216.027 43.5786 213.605V197.023Z" fill="#FDD904"/>
<path d="M52.344 184.517H43.5789V187.332H52.344V184.517Z" fill="#2E2D2D"/>
<path d="M52.344 191.495H43.5789V197.022H52.344V191.495Z" fill="#2E2D2D"/>
<path d="M50.7253 155.824H45.1972V174.951H50.7253V155.824Z" fill="white"/>
<path d="M47.9614 144.629H58.6281V128.411C58.6281 122.519 53.8521 117.743 47.9614 117.743C42.0694 117.743 37.2934 122.519 37.2934 128.411V144.629H47.9614Z" fill="#1B1918"/>
<path d="M26.0334 3.12396H71.0734V10.236H26.0334V3.12396Z" fill="#222120"/>
<path d="M41.64 110.255H54.0854V115.525H41.64V110.255Z" fill="#1B1918"/>
<path d="M73.444 110.255C75.6267 110.255 77.3947 112.024 77.3947 114.205V132.12C77.3947 134.301 75.6267 136.071 73.444 136.071C71.2627 136.071 69.4933 134.301 69.4933 132.12V114.205C69.4933 112.024 71.2627 110.255 73.444 110.255Z" fill="#373637"/>
<path d="M22.38 110.255C24.5614 110.255 26.3307 112.024 26.3307 114.205V132.12C26.3307 134.301 24.5614 136.071 22.38 136.071C20.1974 136.071 18.428 134.301 18.428 132.12V114.205C18.428 112.024 20.1974 110.255 22.38 110.255Z" fill="#373637"/>
<path d="M58.628 235.812C58.628 235.812 61.6827 230.693 65.9334 225.952C70.1841 221.211 71.5907 209.052 71.5907 209.052L81.1481 206.692V230.396L58.628 235.812Z" fill="#FDD405"/>
<path d="M37.2934 235.812C37.2934 235.812 34.2401 230.693 29.9881 225.952C25.7374 221.211 24.3321 209.052 24.3321 209.052L14.7747 206.692V230.396L37.2934 235.812Z" fill="#FDD405"/>
<path d="M43.617 213.531V212.791L48.8938 206.191H50.0316L44.7975 212.791L44.2428 212.62H52.2504V213.531H43.617ZM49.2351 216.148V213.531L49.2636 212.62V210.316H50.2592V216.148H49.2351Z" fill="#1B1918"/>
</svg>
