<svg width="96" height="239" viewBox="0 0 96 239" fill="none" xmlns="http://www.w3.org/2000/svg">
<path d="M60.1506 24.624H64.299V33.712H60.1506V24.624Z" fill="#1B1918"/>
<path d="M31.2109 24.624H35.3593V33.712H31.2109V24.624Z" fill="#1B1918"/>
<path d="M31.112 29.2599H64.299V138.783H31.112V29.2599Z" fill="#1B1918"/>
<path d="M73.4355 185.128H53.0391V189.672H73.4355V185.128Z" fill="#222120"/>
<path d="M53.0391 173.241L73.4355 182.496V187.04L53.0391 177.785V173.241Z" fill="#222120"/>
<path d="M42.1746 185.128H22.0627V189.672H42.1746V185.128Z" fill="#222120"/>
<path d="M42.1746 173.241L22.0627 182.496V187.04L42.1746 177.785V173.241Z" fill="#222120"/>
<path d="M53.0391 41.1469H70.8183V45.6896H53.0391V41.1469Z" fill="#222120"/>
<path d="M53.0391 29.2599L70.8183 38.5145V43.0573L53.0391 33.8027V29.2599Z" fill="#222120"/>
<path d="M42.1746 41.1469H24.396V45.6896H42.1746V41.1469Z" fill="#222120"/>
<path d="M42.1746 29.2599L24.396 38.5145V43.0573L42.1746 33.8027V29.2599Z" fill="#222120"/>
<path d="M14.5187 206.76L47.7052 214.957L62.5776 211.284L80.8927 206.76V230.424L47.7052 238.465L14.5187 230.424V206.76Z" fill="#1E5185"/>
<path d="M18.572 62.8147H76.8391C79.0776 62.8147 80.8927 64.6307 80.8927 66.8693V142.58C80.8927 144.819 79.0776 146.633 76.8391 146.633H18.572C16.3334 146.633 14.5187 144.819 14.5187 142.58V66.8693C14.5187 64.6307 16.3334 62.8147 18.572 62.8147Z" fill="#1B1918"/>
<path d="M34.6678 144.697H60.7432L54.1104 226.532C53.8402 229.868 51.0531 232.439 47.7058 232.439H47.7052C44.3579 232.439 41.5708 229.868 41.3006 226.532L34.6678 144.697Z" fill="#F25127"/>
<path d="M19.8027 140.111L34.6678 144.697H60.7432L75.6088 140.111C78.7339 139.147 80.8927 136.015 80.8927 132.449V121.804C80.8927 114.796 79.1932 107.915 75.9688 101.868C65.8922 82.972 58.8214 62.3267 55.0604 40.8197L53.0391 29.2599H47.7052H42.3719L40.3506 40.8197C36.5896 62.3267 29.5188 82.972 19.4427 101.868C16.2187 107.915 14.5187 114.796 14.5187 121.804V132.449C14.5187 136.015 16.6774 139.147 19.8027 140.111Z" fill="#F25127"/>
<path d="M74.1927 21.364H89.3703C92.7068 21.364 95.412 24.0693 95.412 27.4068V55.064C95.412 58.4 92.7068 61.1053 89.3703 61.1053H74.1927C70.8563 61.1053 68.1511 58.4 68.1511 55.064V27.4068C68.1511 24.0693 70.8563 21.364 74.1927 21.364Z" fill="#1B1918"/>
<path d="M78.7303 165.433H89.9693C92.9749 165.433 95.412 167.869 95.412 170.876V199.731C95.412 202.737 92.9749 205.175 89.9693 205.175H78.7303C75.724 205.175 73.2869 202.737 73.2869 199.731V170.876C73.2869 167.869 75.724 165.433 78.7303 165.433Z" fill="#1B1918"/>
<path d="M5.44268 165.433H16.6813C19.6867 165.433 22.124 167.869 22.124 170.876V199.731C22.124 202.737 19.6867 205.175 16.6813 205.175H5.44268C2.43601 205.175 -0.00131704 202.737 -0.00131704 199.731V170.876C-0.00131704 167.869 2.43601 165.433 5.44268 165.433Z" fill="#1B1918"/>
<path d="M6.04137 21.364H21.2187C24.5547 21.364 27.2599 24.0693 27.2599 27.4068V55.064C27.2599 58.4 24.5547 61.1053 21.2187 61.1053H6.04137C2.70403 61.1053 -0.0013086 58.4 -0.0013086 55.064V27.4068C-0.0013086 24.0693 2.70403 21.364 6.04137 21.364Z" fill="#1B1918"/>
<path d="M15.9014 0.0880127H79.3126V24.624H15.9014V0.0880127Z" fill="#1E5185"/>
<path d="M15.9014 12.2989H79.3126V24.624H15.9014V12.2989Z" fill="#1E5185"/>
<path d="M85.2385 229.353L80.8927 230.464V206.759L85.2385 205.648V229.353Z" fill="#F25127"/>
<path d="M10.172 229.353L14.5187 230.464V206.759L10.172 205.648V229.353Z" fill="#F25127"/>
<path d="M58.3729 117.811L47.6068 52.9734L37.038 117.811V128.479H58.3729V117.811Z" fill="#F35F39"/>
<path d="M73.7812 0.0880127H79.3126V24.624H73.7812V0.0880127Z" fill="#F25127"/>
<path d="M15.9013 0.0880127H21.432V24.624H15.9013V0.0880127Z" fill="#F25127"/>
<path d="M45.9276 29.2599H49.4833V117.811H45.9276V29.2599Z" fill="#1E5185"/>
<path d="M42.7916 221.204H52.6193V224.02H42.7916V221.204Z" fill="white"/>
<path d="M52.6193 184.585H42.7917V187.4H52.6193V184.585Z" fill="white"/>
<path d="M52.6193 191.563H42.7917V197.091H52.6193V191.563Z" fill="white"/>
<path d="M50.4694 155.892H44.9418V175.019H50.4694V155.892Z" fill="white"/>
<path d="M47.7052 150.164H47.7058C50.126 150.164 52.088 152.125 52.088 154.547V184.585H43.3229V154.547C43.3229 152.125 45.285 150.164 47.7052 150.164ZM50.4694 175.019V155.892H44.9416V175.019H50.4694ZM43.3229 187.4H52.088V191.563H43.3229V187.4ZM43.3229 197.091H52.088V213.673C52.088 216.095 50.126 218.056 47.7058 218.056H47.7052C45.285 218.056 43.3229 216.095 43.3229 213.673V197.091Z" fill="#F36037"/>
<path d="M52.088 184.585H43.3229V187.4H52.088V184.585Z" fill="white"/>
<path d="M52.088 191.563H43.3229V197.091H52.088V191.563Z" fill="white"/>
<path d="M50.4694 155.892H44.9418V175.019H50.4694V155.892Z" fill="white"/>
<path d="M47.7057 144.697H58.3729V128.479C58.3729 122.587 53.5969 117.811 47.7057 117.811C41.814 117.811 37.038 122.587 37.038 128.479V144.697H47.7057Z" fill="#1B1918"/>
<path d="M25.7787 3.19214H70.8183V10.3041H25.7787V3.19214Z" fill="#D4D3D1"/>
<path d="M41.3844 110.323H53.8292V115.593H41.3844V110.323Z" fill="#1B1918"/>
<path d="M73.1886 110.323C75.3703 110.323 77.1391 112.091 77.1391 114.273V132.187C77.1391 134.369 75.3703 136.139 73.1886 136.139C71.0063 136.139 69.2375 134.369 69.2375 132.187V114.273C69.2375 112.091 71.0063 110.323 73.1886 110.323Z" fill="#F36037"/>
<path d="M22.124 110.323C24.3054 110.323 26.0747 112.091 26.0747 114.273V132.187C26.0747 134.369 24.3054 136.139 22.124 136.139C19.9414 136.139 18.1734 134.369 18.1734 132.187V114.273C18.1734 112.091 19.9414 110.323 22.124 110.323Z" fill="#F36037"/>
<path d="M46.6745 216.301C45.9634 216.301 45.2854 216.187 44.6406 215.96C43.9958 215.723 43.4838 215.41 43.1045 215.021L43.6023 214.21C43.9152 214.542 44.3419 214.817 44.8824 215.035C45.4324 215.253 46.025 215.362 46.6603 215.362C47.5042 215.362 48.1442 215.177 48.5804 214.807C49.0261 214.428 49.2489 213.935 49.2489 213.328C49.2489 212.902 49.1446 212.537 48.936 212.233C48.7369 211.92 48.3955 211.678 47.9119 211.508C47.4283 211.337 46.7646 211.252 45.9207 211.252H43.8015L44.3135 206.259H49.7609V207.17H44.726L45.2522 206.672L44.8113 210.853L44.285 210.341H46.1483C47.1534 210.341 47.9593 210.465 48.5662 210.711C49.173 210.958 49.6092 211.304 49.8747 211.75C50.1497 212.186 50.2872 212.698 50.2872 213.286C50.2872 213.845 50.1544 214.357 49.8889 214.822C49.6234 215.277 49.2252 215.637 48.6942 215.903C48.1632 216.168 47.49 216.301 46.6745 216.301Z" fill="white"/>
</svg>
