<svg width="96" height="239" viewBox="0 0 96 239" fill="none" xmlns="http://www.w3.org/2000/svg">
<path d="M60.216 24.556H64.364V33.6453H60.216V24.556Z" fill="#1B1918"/>
<path d="M31.276 24.556H35.424V33.6453H31.276V24.556Z" fill="#1B1918"/>
<path d="M31.1774 29.192H64.364V138.715H31.1774V29.192Z" fill="#1B1918"/>
<path d="M53.104 185.061H73.5V189.604H53.104V185.061Z" fill="#222120"/>
<path d="M53.104 173.173L73.5 182.428V186.972L53.104 177.717V173.173Z" fill="#222120"/>
<path d="M42.2387 185.061H22.1267V189.604H42.2387V185.061Z" fill="#222120"/>
<path d="M42.2387 173.173L22.1267 182.428V186.972L42.2387 177.717V173.173Z" fill="#222120"/>
<path d="M53.104 41.0787H70.8827V45.6227H53.104V41.0787Z" fill="#222120"/>
<path d="M53.104 29.192L70.8827 38.4466V42.9893L53.104 33.7346V29.192Z" fill="#222120"/>
<path d="M42.2387 41.0787H24.46V45.6227H42.2387V41.0787Z" fill="#222120"/>
<path d="M42.2387 29.192L24.46 38.4466V42.9893L42.2387 33.7346V29.192Z" fill="#222120"/>
<path d="M14.5827 206.692L47.7707 214.889L62.6427 211.216L80.9573 206.692V230.356L47.7707 238.397L14.5827 230.356V206.692Z" fill="#12202E"/>
<path d="M18.6374 62.748H76.904C79.1427 62.748 80.9573 64.5626 80.9573 66.8013V142.512C80.9573 144.751 79.1427 146.565 76.904 146.565H18.6374C16.3987 146.565 14.5827 144.751 14.5827 142.512V66.8013C14.5827 64.5626 16.3987 62.748 18.6374 62.748Z" fill="#1B1918"/>
<path d="M34.732 144.629H60.808L54.176 226.464C53.9054 229.801 51.1187 232.371 47.7707 232.371C44.4227 232.371 41.636 229.801 41.3654 226.464L34.732 144.629Z" fill="#152B44"/>
<path d="M19.8667 140.043L34.732 144.629H60.808L75.6734 140.043C78.7987 139.079 80.9573 135.948 80.9573 132.381V121.736C80.9573 114.728 79.2573 107.847 76.0333 101.8C65.9573 82.9053 58.8867 62.2599 55.1253 40.7519L53.104 29.192H47.7707H42.4374L40.416 40.7519C36.6547 62.2599 29.584 82.9053 19.5067 101.8C16.2827 107.847 14.5827 114.728 14.5827 121.736V132.381C14.5827 135.948 16.7427 139.079 19.8667 140.043Z" fill="#152B44"/>
<path d="M74.2573 21.2973H89.4347C92.772 21.2973 95.4774 24.0013 95.4774 27.3386V54.996C95.4774 58.332 92.772 61.0373 89.4347 61.0373H74.2573C70.9213 61.0373 68.216 58.332 68.216 54.996V27.3386C68.216 24.0013 70.9213 21.2973 74.2573 21.2973Z" fill="#1B1918"/>
<path d="M78.7947 165.365H90.0333C93.04 165.365 95.4774 167.803 95.4774 170.808V199.664C95.4774 202.669 93.04 205.107 90.0333 205.107H78.7947C75.7893 205.107 73.352 202.669 73.352 199.664V170.808C73.352 167.803 75.7893 165.365 78.7947 165.365Z" fill="#1B1918"/>
<path d="M5.50668 165.365H16.7454C19.752 165.365 22.1893 167.803 22.1893 170.808V199.664C22.1893 202.669 19.752 205.107 16.7454 205.107H5.50668C2.50135 205.107 0.0640068 202.669 0.0640068 199.664V170.808C0.0640068 167.803 2.50135 165.365 5.50668 165.365Z" fill="#1B1918"/>
<path d="M6.10533 21.2973H21.2827C24.62 21.2973 27.3253 24.0013 27.3253 27.3386V54.996C27.3253 58.332 24.62 61.0373 21.2827 61.0373H6.10533C2.76933 61.0373 0.0639915 58.332 0.0639915 54.996V27.3386C0.0639915 24.0013 2.76933 21.2973 6.10533 21.2973Z" fill="#1B1918"/>
<path d="M15.9667 0.0199585H79.3774V24.556H15.9667V0.0199585Z" fill="#152B44"/>
<path d="M15.9667 12.2307H79.3774V24.556H15.9667V12.2307Z" fill="#152B44"/>
<path d="M85.304 229.285L80.9573 230.396V206.692L85.304 205.58V229.285Z" fill="#222120"/>
<path d="M10.2374 229.285L14.5827 230.396V206.692L10.2374 205.58V229.285Z" fill="#222120"/>
<path d="M58.4373 117.743L47.672 52.9053L37.1027 117.743V128.411H58.4373V117.743Z" fill="#FDD405"/>
<path d="M73.8454 0.0199585H79.3774V24.556H73.8454V0.0199585Z" fill="#222120"/>
<path d="M15.9667 0.0199585H21.4973V24.556H15.9667V0.0199585Z" fill="#222120"/>
<path d="M45.992 29.192H49.548V117.743H45.992V29.192Z" fill="#152B44"/>
<path d="M42.856 221.137H52.684V223.952H42.856V221.137Z" fill="#F9E213"/>
<path d="M52.684 184.517H42.8559V187.332H52.684V184.517Z" fill="#F9E213"/>
<path d="M52.684 191.495H42.8559V197.022H52.684V191.495Z" fill="#F9E213"/>
<path d="M50.5347 155.824H45.0065V174.951H50.5347V155.824Z" fill="white"/>
<path d="M65.744 79.2186C63.672 73.8186 61.8307 68.3173 60.216 62.732V144.629H60.808L65.744 143.107V79.2186Z" fill="#D52125"/>
<path d="M34.7333 144.629V64.7653C33.108 70.1773 31.2613 75.5053 29.2053 80.7373V142.924L34.732 144.629H34.7333Z" fill="#D52125"/>
<path d="M47.7707 150.096C50.1907 150.096 52.1533 152.059 52.1533 154.479V184.517H43.388V154.479C43.388 152.059 45.3493 150.096 47.7707 150.096ZM50.5347 174.952V155.824H45.0067V174.952H50.5347ZM43.388 187.332H52.1533V191.495H43.388V187.332ZM43.388 197.023H52.1533V213.605C52.1533 216.027 50.1907 217.988 47.7707 217.988C45.3493 217.988 43.388 216.027 43.388 213.605V197.023Z" fill="#183F5C"/>
<path d="M52.1533 184.517H43.3882V187.332H52.1533V184.517Z" fill="#FAE62B"/>
<path d="M52.1533 191.495H43.3882V197.022H52.1533V191.495Z" fill="#FAE62B"/>
<path d="M50.5347 155.824H45.0065V174.951H50.5347V155.824Z" fill="white"/>
<path d="M47.7707 144.629H58.4373V128.411C58.4373 122.519 53.6613 117.743 47.7707 117.743C41.8787 117.743 37.1027 122.519 37.1027 128.411V144.629H47.7707Z" fill="#1B1918"/>
<path d="M25.8427 3.12396H70.8827V10.236H25.8427V3.12396Z" fill="white"/>
<path d="M41.4493 110.255H53.8947V115.525H41.4493V110.255Z" fill="#1B1918"/>
<path d="M73.2534 110.255C75.436 110.255 77.204 112.024 77.204 114.205V132.12C77.204 134.301 75.436 136.071 73.2534 136.071C71.0707 136.071 69.3027 134.301 69.3027 132.12V114.205C69.3027 112.024 71.0707 110.255 73.2534 110.255Z" fill="#183F5C"/>
<path d="M22.188 110.255H22.1893C24.3707 110.255 26.14 112.024 26.14 114.205V132.12C26.14 134.301 24.3707 136.071 22.1893 136.071H22.188C20.0067 136.071 18.2373 134.301 18.2373 132.12V114.205C18.2373 112.024 20.0067 110.255 22.188 110.255Z" fill="#183F5C"/>
<path d="M58.4374 235.812C58.4374 235.812 61.492 230.693 65.7427 225.952C69.9934 221.211 71.4 209.052 71.4 209.052L80.9573 206.692V230.396L58.4374 235.812Z" fill="#D52125"/>
<path d="M37.1027 235.812C37.1027 235.812 34.0493 230.693 29.7973 225.952C25.5467 221.211 24.1413 209.052 24.1413 209.052L14.5827 206.692V230.396L37.1027 235.812Z" fill="#D52125"/>
<path d="M46.5709 216.233C45.8503 216.233 45.1676 216.119 44.5228 215.892C43.8875 215.655 43.3755 215.342 42.9867 214.953L43.4845 214.142C43.8069 214.474 44.2383 214.749 44.7788 214.967C45.3288 215.185 45.9261 215.294 46.5709 215.294C47.3959 215.294 48.0264 215.114 48.4626 214.754C48.9082 214.393 49.1311 213.91 49.1311 213.303C49.1311 212.696 48.913 212.213 48.4768 211.852C48.0501 211.492 47.3722 211.312 46.4429 211.312H45.7318V210.558L48.8039 206.703L48.9462 207.102H43.3992V206.191H49.7996V206.917L46.7274 210.771L46.2296 210.444H46.6136C47.8083 210.444 48.6996 210.71 49.2875 211.241C49.8849 211.772 50.1836 212.454 50.1836 213.289C50.1836 213.848 50.0508 214.351 49.7853 214.796C49.5198 215.242 49.1169 215.593 48.5764 215.849C48.0454 216.105 47.3769 216.233 46.5709 216.233Z" fill="#F9E213"/>
</svg>
