<svg width="97" height="239" viewBox="0 0 97 239" fill="none" xmlns="http://www.w3.org/2000/svg">
<path d="M60.9707 24.556H65.12V33.6453H60.9707V24.556Z" fill="#1B1918"/>
<path d="M32.0307 24.556H36.18V33.6453H32.0307V24.556Z" fill="#1B1918"/>
<path d="M31.932 29.192H65.12V138.715H31.932V29.192Z" fill="#1B1918"/>
<path d="M53.86 185.061H74.256V189.604H53.86V185.061Z" fill="#222120"/>
<path d="M53.86 173.173L74.256 182.428V186.972L53.86 177.717V173.173Z" fill="#222120"/>
<path d="M42.9947 185.061H22.8827V189.604H42.9947V185.061Z" fill="#222120"/>
<path d="M42.9947 173.173L22.8827 182.428V186.972L42.9947 177.717V173.173Z" fill="#222120"/>
<path d="M53.86 41.0787H71.6387V45.6227H53.86V41.0787Z" fill="#222120"/>
<path d="M53.86 29.192L71.6387 38.4466V42.9893L53.86 33.7346V29.192Z" fill="#222120"/>
<path d="M42.9947 41.0787H25.216V45.6227H42.9947V41.0787Z" fill="#222120"/>
<path d="M42.9947 29.192L25.216 38.4466V42.9893L42.9947 33.7346V29.192Z" fill="#222120"/>
<path d="M15.3387 206.692L48.5267 214.889L63.3987 211.216L81.7133 206.692V230.356L48.5267 238.397L15.3387 230.356V206.692Z" fill="#1B1918"/>
<path d="M19.392 62.748H77.66C79.8987 62.748 81.7133 64.5626 81.7133 66.8013V142.512C81.7133 144.751 79.8987 146.565 77.66 146.565H19.392C17.1533 146.565 15.3387 144.751 15.3387 142.512V66.8013C15.3387 64.5626 17.1533 62.748 19.392 62.748Z" fill="#1B1918"/>
<path d="M35.488 144.629H61.564L54.9307 226.464C54.66 229.801 51.8734 232.371 48.5267 232.371C45.1787 232.371 42.392 229.801 42.1214 226.464L35.488 144.629Z" fill="#C3C2C0"/>
<path d="M20.6227 140.043L35.488 144.629H61.564L76.4293 140.043C79.5533 139.079 81.7133 135.948 81.7133 132.381V121.736C81.7133 114.728 80.0134 107.847 76.7894 101.8C66.7134 82.9053 59.6414 62.2599 55.8814 40.7519L53.86 29.192H48.5267H43.192L41.1707 40.7519C37.4094 62.2599 30.3387 82.9053 20.2627 101.8C17.0387 107.847 15.3387 114.728 15.3387 121.736V132.381C15.3387 135.948 17.4973 139.079 20.6227 140.043Z" fill="#C3C2C0"/>
<path d="M75.0134 21.2973H90.1907C93.528 21.2973 96.232 24.0013 96.232 27.3386V54.996C96.232 58.332 93.528 61.0373 90.1907 61.0373H75.0134C71.676 61.0373 68.972 58.332 68.972 54.996V27.3386C68.972 24.0013 71.676 21.2973 75.0134 21.2973Z" fill="#1B1918"/>
<path d="M79.5507 165.365H90.7894C93.796 165.365 96.232 167.803 96.232 170.808V199.664C96.232 202.669 93.796 205.107 90.7894 205.107H79.5507C76.544 205.107 74.108 202.669 74.108 199.664V170.808C74.108 167.803 76.544 165.365 79.5507 165.365Z" fill="#1B1918"/>
<path d="M6.26268 165.365H17.5014C20.508 165.365 22.944 167.803 22.944 170.808V199.664C22.944 202.669 20.508 205.107 17.5014 205.107H6.26268C3.25602 205.107 0.820006 202.669 0.820006 199.664V170.808C0.820006 167.803 3.25602 165.365 6.26268 165.365Z" fill="#1B1918"/>
<path d="M6.86133 21.2973H22.0387C25.376 21.2973 28.08 24.0013 28.08 27.3386V54.996C28.08 58.332 25.376 61.0373 22.0387 61.0373H6.86133C3.524 61.0373 0.819993 58.332 0.819993 54.996V27.3386C0.819993 24.0013 3.524 21.2973 6.86133 21.2973Z" fill="#1B1918"/>
<path d="M16.7213 0.0199585H80.132V24.556H16.7213V0.0199585Z" fill="#1B1918"/>
<path d="M16.7213 12.2307H80.132V24.556H16.7213V12.2307Z" fill="#222120"/>
<path d="M86.0587 229.285L81.7134 230.396V206.692L86.0587 205.58V229.285Z" fill="#222120"/>
<path d="M10.9933 229.285L15.3387 230.396V206.692L10.9933 205.58V229.285Z" fill="#222120"/>
<path d="M59.1933 117.743L48.4267 52.9053L37.8587 117.743V128.411H59.1933V117.743Z" fill="#222120"/>
<path d="M74.6014 0.0199585H80.132V24.556H74.6014V0.0199585Z" fill="#222120"/>
<path d="M16.7213 0.0199585H22.2533V24.556H16.7213V0.0199585Z" fill="#222120"/>
<path d="M46.748 29.192H50.304V117.743H46.748V29.192Z" fill="#D4D3D1"/>
<path d="M43.612 221.137H53.44V223.952H43.612V221.137Z" fill="#222120"/>
<path d="M53.44 184.517H43.6119V187.332H53.44V184.517Z" fill="#222120"/>
<path d="M53.44 191.495H43.6119V197.022H53.44V191.495Z" fill="#222120"/>
<path d="M51.2894 155.824H45.7628V174.951H51.2894V155.824Z" fill="white"/>
<path d="M66.4987 100.427V110.255H60.9707V100.427H66.4987Z" fill="#0798A3"/>
<path d="M35.488 100.427V110.255H29.9613V100.427H35.488Z" fill="#0798A3"/>
<path d="M48.5267 150.096C50.9467 150.096 52.908 152.059 52.908 154.479V184.517H44.1427V154.479C44.1427 152.059 46.1053 150.096 48.5267 150.096ZM51.2894 174.952V155.824H45.7627V174.952H51.2894ZM44.1427 187.332H52.908V191.495H44.1427V187.332ZM44.1427 197.023H52.908V213.605C52.908 216.027 50.9467 217.988 48.5267 217.988C46.1053 217.988 44.1427 216.027 44.1427 213.605V197.023Z" fill="#CAC8C7"/>
<path d="M52.908 184.517H44.1429V187.332H52.908V184.517Z" fill="#373637"/>
<path d="M52.908 191.495H44.1429V197.022H52.908V191.495Z" fill="#373637"/>
<path d="M51.2894 155.824H45.7628V174.951H51.2894V155.824Z" fill="white"/>
<path d="M48.5253 144.629H59.1933V128.411C59.1933 122.519 54.4173 117.743 48.5253 117.743C42.6347 117.743 37.8587 122.519 37.8587 128.411V144.629H48.5253Z" fill="#1B1918"/>
<path d="M26.5987 3.12396H71.6387V10.236H26.5987V3.12396Z" fill="#0798A3"/>
<path d="M42.204 110.255H54.6494V115.525H42.204V110.255Z" fill="#1B1918"/>
<path d="M74.0094 110.255C76.1907 110.255 77.96 112.024 77.96 114.205V132.12C77.96 134.301 76.1907 136.071 74.0094 136.071C71.8267 136.071 70.0587 134.301 70.0587 132.12V114.205C70.0587 112.024 71.8267 110.255 74.0094 110.255Z" fill="#CAC8C7"/>
<path d="M22.944 110.255C25.1267 110.255 26.8947 112.024 26.8947 114.205V132.12C26.8947 134.301 25.1267 136.071 22.944 136.071C20.7627 136.071 18.9933 134.301 18.9933 132.12V114.205C18.9933 112.024 20.7627 110.255 22.944 110.255Z" fill="#CAC8C7"/>
<path d="M59.1933 235.812C59.1933 235.812 62.248 230.693 66.4987 225.952C70.7493 221.211 72.156 209.052 72.156 209.052L81.7133 206.692V230.396L59.1933 235.812Z" fill="#0798A3"/>
<path d="M37.8587 235.812C37.8587 235.812 34.804 230.693 30.5533 225.952C26.3027 221.211 24.896 209.052 24.896 209.052L15.3387 206.692V230.396L37.8587 235.812Z" fill="#0798A3"/>
<path d="M78.9947 106.699C78.3627 105.019 77.6307 103.38 76.7894 101.8C66.712 82.9053 59.6414 62.2599 55.8814 40.7519L53.86 29.192H50.304C50.304 29.192 52.6747 54.5213 59.1934 73.468C64.0227 87.504 71.3467 92.9933 78.9947 106.699Z" fill="#0798A3"/>
<path d="M18.0573 106.699C18.688 105.019 19.42 103.38 20.2627 101.8C30.3387 82.9053 37.4094 62.2599 41.1707 40.7519L43.192 29.192H46.748C46.748 29.192 44.3773 54.5213 37.8587 73.468C33.0293 87.504 25.7053 92.9933 18.0573 106.699Z" fill="#0798A3"/>
<path d="M44.168 216.148V215.422L48.307 211.369C48.6862 210.999 48.9707 210.676 49.1603 210.401C49.35 210.117 49.478 209.852 49.5444 209.605C49.6107 209.358 49.6439 209.126 49.6439 208.908C49.6439 208.33 49.4448 207.874 49.0466 207.543C48.6578 207.211 48.0794 207.045 47.3113 207.045C46.7235 207.045 46.2019 207.135 45.7468 207.315C45.3011 207.495 44.9171 207.775 44.5947 208.154L43.8694 207.528C44.2581 207.073 44.7559 206.722 45.3628 206.476C45.9696 206.229 46.6476 206.106 47.3967 206.106C48.0699 206.106 48.653 206.215 49.1461 206.433C49.6392 206.642 50.0185 206.95 50.284 207.358C50.5589 207.765 50.6964 208.244 50.6964 208.794C50.6964 209.117 50.649 209.434 50.5542 209.747C50.4689 210.06 50.3077 210.392 50.0706 210.743C49.843 211.084 49.5064 211.473 49.0608 211.909L45.2632 215.636L44.9788 215.237H51.1516V216.148H44.168Z" fill="#1B1918"/>
</svg>
